<svg width="20" height="20" viewBox="0 0 20 20" fill="none" xmlns="http://www.w3.org/2000/svg">
<path fill-rule="evenodd" clip-rule="evenodd" d="M3.23488 6.78301C4.64166 5.40017 6.85498 4 10 4C13.145 4 15.3583 5.40017 16.7651 6.78301C17.4652 7.47121 17.9699 8.15813 18.3011 8.67517C18.4672 8.93441 18.591 9.15308 18.675 9.31084C18.7171 9.38979 18.7493 9.4537 18.772 9.50005C18.7834 9.52323 18.7924 9.54205 18.799 9.55618L18.8073 9.57383L18.8101 9.57995L18.8112 9.58233L18.8116 9.58334C18.8118 9.5838 18.812 9.58424 17.9125 10C18.812 10.4158 18.8118 10.4162 18.8116 10.4167L18.8112 10.4177L18.8101 10.42L18.8073 10.4262L18.799 10.4438C18.7924 10.458 18.7834 10.4768 18.772 10.4999C18.7493 10.5463 18.7171 10.6102 18.675 10.6892C18.591 10.8469 18.4672 11.0656 18.3011 11.3248C17.9699 11.8419 17.4652 12.5288 16.7651 13.217C15.3583 14.5998 13.145 16 10 16C6.85498 16 4.64166 14.5998 3.23488 13.217C2.53476 12.5288 2.03006 11.8419 1.69888 11.3248C1.53283 11.0656 1.40903 10.8469 1.32496 10.6892C1.28289 10.6102 1.25066 10.5463 1.22795 10.4999C1.2166 10.4768 1.20762 10.458 1.20097 10.4438L1.19274 10.4262L1.18993 10.42L1.18885 10.4177L1.18839 10.4167C1.18818 10.4162 1.18798 10.4158 2.08751 10C1.18798 9.58424 1.18818 9.5838 1.18839 9.58334L1.18885 9.58233L1.18993 9.57995L1.19274 9.57383L1.20097 9.55618C1.20762 9.54205 1.2166 9.52323 1.22795 9.50005C1.25066 9.4537 1.28289 9.38979 1.32496 9.31084C1.40903 9.15308 1.53283 8.93441 1.69888 8.67517C2.03006 8.15813 2.53476 7.47121 3.23488 6.78301ZM2.08751 10L1.18798 9.58424L1 10L1.18798 10.4158L2.08751 10ZM2.98668 10.4165L2.98592 10.4182L2.98637 10.4172L2.98668 10.4165ZM3.21269 10C3.25535 9.92796 3.30416 9.84831 3.35923 9.76233C3.62855 9.34187 4.04226 8.77879 4.61379 8.217C5.75031 7.09983 7.49324 6 10 6C12.5068 6 14.2497 7.09983 15.3862 8.217C15.9577 8.77879 16.3715 9.34187 16.6408 9.76233C16.6958 9.84831 16.7446 9.92796 16.7873 10C16.7446 10.072 16.6958 10.1517 16.6408 10.2377C16.3715 10.6581 15.9577 11.2212 15.3862 11.783C14.2497 12.9002 12.5068 14 10 14C7.49324 14 5.75031 12.9002 4.61379 11.783C4.04226 11.2212 3.62855 10.6581 3.35923 10.2377C3.30416 10.1517 3.25535 10.072 3.21269 10ZM17.0133 9.58346L17.0141 9.58178L17.0136 9.58279L17.0133 9.58346ZM17.9125 10L18.812 10.4158L19 10L18.812 9.58424L17.9125 10Z" fill="#162035"/>
<path fill-rule="evenodd" clip-rule="evenodd" d="M10 9C9.44772 9 9 9.44772 9 10C9 10.5523 9.44772 11 10 11C10.5523 11 11 10.5523 11 10C11 9.44772 10.5523 9 10 9ZM7 10C7 8.34315 8.34315 7 10 7C11.6569 7 13 8.34315 13 10C13 11.6569 11.6569 13 10 13C8.34315 13 7 11.6569 7 10Z" fill="#162035"/>
</svg>
