<svg width="20" height="20" viewBox="0 0 20 20" fill="none" xmlns="http://www.w3.org/2000/svg">
<path fill-rule="evenodd" clip-rule="evenodd" d="M4.38312 2.58643L16.3646 15.2172L14.9326 16.5864L2.95117 3.95561L4.38312 2.58643Z" fill="#162035"/>
<path fill-rule="evenodd" clip-rule="evenodd" d="M9.49583 8.08195L8.74902 8.7373C8.47711 8.9759 8.29268 9.28248 8.21172 9.61312C8.13088 9.94329 8.15502 10.2893 8.28262 10.6081C8.41049 10.9275 8.6387 11.2099 8.94508 11.4127C9.25195 11.6159 9.62011 11.7274 10.0009 11.7274L10.0044 11.7274C10.4724 11.7292 10.9166 11.5602 11.2497 11.2656L12.5514 12.7711C11.8482 13.3931 10.9365 13.7304 9.99901 13.7274L9.99723 13.7274L10.0007 13.7274H9.99901C9.24009 13.727 8.4953 13.5053 7.86216 13.0862C7.22807 12.6664 6.73296 12.0661 6.44973 11.3587C6.16624 10.6505 6.11077 9.87358 6.29226 9.13235C6.47363 8.39161 6.8812 7.72851 7.45312 7.22663L8.02397 6.5L9.49583 8.08195Z" fill="#162035"/>
<path fill-rule="evenodd" clip-rule="evenodd" d="M7.50642 6.41731L6.61575 6.85147C5.34389 7.47145 4.42948 8.37123 3.82913 9.12811C3.56126 9.46583 3.35979 9.77026 3.22058 10.0002C3.2608 10.0665 3.30627 10.1391 3.35712 10.2171C3.62566 10.6288 4.03853 11.1808 4.60926 11.7318C5.74371 12.8271 7.48796 13.9097 10.0001 13.9097H10.0078C11.1822 13.919 12.3402 13.6577 13.3853 13.1494L14.2422 14.9519C12.9236 15.5931 11.4683 15.9207 9.9963 15.9097C6.86065 15.9086 4.65126 14.5373 3.24388 13.1786C2.5434 12.5023 2.03819 11.827 1.70643 11.3183C1.54011 11.0633 1.41606 10.8481 1.33174 10.6927C1.28954 10.6149 1.25719 10.5519 1.23437 10.5061C1.22296 10.4833 1.21392 10.4647 1.20722 10.4507L1.1989 10.4331L1.19605 10.427L1.19495 10.4247L1.19448 10.4236C2.60884 9.75586 1.05181 9.88798 1.19395 9.57879L1.19503 9.57646L1.19686 9.5725L1.20194 9.5617L1.21772 9.52884C1.23076 9.50206 1.24886 9.46566 1.27217 9.42062C1.31875 9.33057 1.38624 9.20569 1.47564 9.05381C1.65415 8.75054 1.9217 8.33675 2.2867 7.87659C3.01405 6.9596 4.14769 5.83438 5.75722 5.0498L7.50642 6.41731ZM1.19395 9.57879L1 10.0012L1.19448 10.4236C2.60884 9.75586 1.05181 9.88798 1.19395 9.57879Z" fill="#162035"/>
<path d="M8.38063 4.21927C8.91567 4.13281 9.45716 4.08985 9.99945 4.09084C13.1366 4.09111 15.3469 5.46287 16.7547 6.82204C17.4552 7.49831 17.9604 8.17359 18.2922 8.68228C18.4585 8.93731 18.5826 9.15252 18.6669 9.30793C18.7091 9.3857 18.7414 9.44869 18.7642 9.49445C18.7779 9.52178 18.7913 9.54921 18.8041 9.57694L18.9989 9.99994L18.8046 10.422L18.7894 10.4541C18.7816 10.4704 18.771 10.4921 18.7575 10.519C18.7305 10.5727 18.692 10.6468 18.6417 10.738C18.5411 10.9204 18.3925 11.1724 18.1925 11.4676C17.7937 12.0564 17.1834 12.8281 16.3327 13.5627L15.0487 12.0417C15.7375 11.4468 16.236 10.8174 16.5611 10.3373C16.6453 10.213 16.7174 10.0994 16.7778 9.99996C16.7376 9.93377 16.6922 9.86129 16.6415 9.78351C16.373 9.37174 15.9601 8.81975 15.3894 8.26874C14.2549 7.17349 12.5107 6.09084 9.99852 6.09084H9.06641L7.4043 4.37706L8.38063 4.21927Z" fill="#162035"/>
</svg>
